<?xml version="1.0" encoding="UTF-8"?>
<svg version="1.1" xmlns="http://www.w3.org/2000/svg" width="500" height="500">
<path d="M0 0 C165 0 330 0 500 0 C500 165 500 330 500 500 C335 500 170 500 0 500 C0 335 0 170 0 0 Z " fill="#FEFEFE" transform="translate(0,0)"/>
<path d="M0 0 C1.47789826 -0.01987273 2.95571194 -0.04791358 4.43328857 -0.08459473 C14.47988277 -0.31569503 22.88914909 0.338504 30.49264526 7.54437256 C34.11925596 10.00565558 37.23782007 9.98271676 41.47213745 9.93865967 C42.2859639 9.94393677 43.09979034 9.94921387 43.9382782 9.95465088 C46.62204301 9.96236453 49.30416362 9.93678036 51.98776245 9.90740967 C52.91192963 9.90386475 53.8360968 9.90031982 54.78826904 9.89666748 C70.63258127 9.8259347 86.2183514 8.56391118 101.95724487 6.84442139 C111.59812601 5.7996267 121.0904312 5.02063393 130.80026245 5.03240967 C131.76842896 5.03112061 132.73659546 5.02983154 133.73410034 5.02850342 C140.4399547 5.13541803 146.71863158 5.51806151 152.23776245 9.65740967 C154.23776245 12.40740967 154.23776245 12.40740967 154.80026245 15.46990967 C154.10554229 19.09789273 153.16118115 20.19509281 150.23776245 22.40740967 C141.84736089 26.83567716 130.91268763 25.68603036 121.67526245 25.71990967 C120.91662903 25.72352509 120.15799561 25.7271405 119.37637329 25.73086548 C100.78670173 25.76569559 82.33471232 24.10716119 63.83932495 22.38006592 C62.95641281 22.29770691 62.07350067 22.2153479 61.16383362 22.13049316 C56.8170575 21.70937644 52.54227966 21.15953762 48.23776245 20.40740967 C40.37789206 19.81912489 34.67284115 19.64545143 28.23776245 24.40740967 C22.28233915 28.693321 18.78165748 30.53353855 11.32369995 30.54022217 C10.64096008 30.54163208 9.95822021 30.54304199 9.25479126 30.54449463 C7.04072878 30.54662842 4.82681039 30.54034575 2.61276245 30.53240967 C1.86266907 30.53085876 1.11257568 30.52930786 0.3397522 30.52770996 C-29.05875836 30.45591584 -29.05875836 30.45591584 -42.76223755 27.40740967 C-42.76223755 26.74740967 -42.76223755 26.08740967 -42.76223755 25.40740967 C-41.53069946 25.38235352 -40.29916138 25.35729736 -39.03030396 25.33148193 C-34.47176262 25.23748355 -29.91337637 25.13724452 -25.35501099 25.03509521 C-23.38011293 24.99171764 -21.40517668 24.95004467 -19.4302063 24.91009521 C-16.59545365 24.85246094 -13.76089377 24.78874697 -10.92630005 24.72381592 C-10.03979767 24.70710342 -9.15329529 24.69039093 -8.2399292 24.673172 C-3.86298599 24.69655756 -3.86298599 24.69655756 0.23776245 23.40740967 C-1.9465984 22.31522924 -3.33114312 22.18935805 -5.75296021 22.01849365 C-6.57365997 21.95850693 -7.39435974 21.8985202 -8.2399292 21.8367157 C-9.12643158 21.77625565 -10.01293396 21.71579559 -10.92630005 21.65350342 C-11.833508 21.58833023 -12.74071594 21.52315704 -13.67541504 21.45600891 C-16.57908892 21.24833143 -19.48313923 21.04655652 -22.38723755 20.84490967 C-24.35341096 20.70532365 -26.31955722 20.56535459 -28.28567505 20.42498779 C-33.11089179 20.08134609 -37.93645431 19.74299828 -42.76223755 19.40740967 C-40.41423618 17.0594083 -39.95339738 17.14712427 -36.77151489 17.08856201 C-35.95081512 17.06869232 -35.13011536 17.04882263 -34.2845459 17.02835083 C-33.39804352 17.01679962 -32.51154114 17.00524841 -31.59817505 16.99334717 C-30.23736313 16.96429794 -30.23736313 16.96429794 -28.84906006 16.93466187 C-25.94521551 16.87477751 -23.04133151 16.8284455 -20.13723755 16.78240967 C-18.17107422 16.74423802 -16.20492775 16.70518678 -14.23880005 16.66522217 C-9.41341585 16.56906876 -4.58795337 16.48507067 0.23776245 16.40740967 C0.56776245 15.74740967 0.89776245 15.08740967 1.23776245 14.40740967 C-13.28223755 13.74740967 -27.80223755 13.08740967 -42.76223755 12.40740967 C-43.09223755 11.74740967 -43.42223755 11.08740967 -43.76223755 10.40740967 C-29.24223755 9.74740967 -14.72223755 9.08740967 0.23776245 8.40740967 C0.23776245 8.07740967 0.23776245 7.74740967 0.23776245 7.40740967 C-4.66266034 6.47707905 -9.47288954 6.11858678 -14.44192505 5.87225342 C-15.25468903 5.82927628 -16.067453 5.78629913 -16.90484619 5.74201965 C-19.48215544 5.60646562 -22.05967842 5.47561705 -24.63723755 5.34490967 C-26.39246214 5.25342425 -28.1476707 5.16163062 -29.90286255 5.06951904 C-34.18914353 4.84524862 -38.47562241 4.62519584 -42.76223755 4.40740967 C-42.43223755 3.74740967 -42.10223755 3.08740967 -41.76223755 2.40740967 C-39.80154419 1.99676514 -39.80154419 1.99676514 -37.1723938 1.77459717 C-36.17659302 1.69024414 -35.18079224 1.60589111 -34.15481567 1.51898193 C-32.506427 1.40187866 -32.506427 1.40187866 -30.82473755 1.28240967 C-29.12027466 1.16047241 -29.12027466 1.16047241 -27.38137817 1.03607178 C-18.26106428 0.45048119 -9.13815975 0.10913809 0 0 Z " fill="#FFA249" transform="translate(190.76223754882813,152.59259033203125)"/>
<path d="M0 0 C8.28400023 1.1184786 16.56177487 1.83387435 24.90087891 2.40209961 C26.69706665 2.5275415 26.69706665 2.5275415 28.52954102 2.65551758 C31.88173338 2.8739397 35.23285025 3.05622809 38.58837891 3.21459961 C40.02963135 3.29121826 40.02963135 3.29121826 41.5 3.36938477 C46.18516106 3.51130904 50.04094948 3.19310044 54.50317383 1.72241211 C61.43176933 -0.23544615 68.12525028 -0.19894302 75.28369141 -0.14868164 C76.68456013 -0.14816093 78.08542959 -0.14868674 79.48629761 -0.15019226 C82.40943451 -0.15010314 85.33229226 -0.13980507 88.25537109 -0.12158203 C91.95001039 -0.09902105 95.64424307 -0.09853239 99.33893204 -0.10481453 C138.37140256 -0.15570765 138.37140256 -0.15570765 150.58837891 5.21459961 C151.58837891 7.90209961 151.58837891 7.90209961 151.58837891 10.21459961 C141.40456055 17.53469762 128.84589634 19.07134776 116.58837891 20.21459961 C115.66557129 20.3007251 114.74276367 20.38685059 113.79199219 20.47558594 C105.74829672 21.16169866 97.7206776 21.46279793 89.64990234 21.50976562 C88.27544897 21.52132249 86.90104176 21.54183291 85.52685547 21.57128906 C74.15442408 21.81305453 64.4012903 20.24524609 54.20947266 14.99584961 C48.01106331 12.12790789 41.34449283 12.61799858 34.65087891 12.71459961 C33.58581619 12.71991699 33.58581619 12.71991699 32.49923706 12.7253418 C19.64587176 12.79963974 7.06597644 14.11880028 -5.66601562 15.77539062 C-33.39350719 19.36793639 -33.39350719 19.36793639 -40.41162109 14.21459961 C-42.41162109 12.21459961 -42.41162109 12.21459961 -42.84912109 8.40209961 C-42.77164377 4.85105579 -42.44460348 4.25649616 -40.09912109 1.27709961 C-30.48119455 -6.10409983 -11.23795276 -1.55073047 0 0 Z " fill="#FFA046" transform="translate(194.41162109375,331.785400390625)"/>
<path d="M0 0 C3.8092294 2.82109266 6.5597724 5.24519838 7.4438324 9.98950195 C7.63055043 13.10736419 7.6646593 16.19298922 7.64453125 19.31640625 C7.65728088 20.45499588 7.67003052 21.59358551 7.6831665 22.76667786 C7.71942992 26.39418535 7.72217529 30.02076477 7.72265625 33.6484375 C7.74426693 37.28647582 7.77271451 40.92437372 7.80499268 44.56233215 C7.8227594 46.82374913 7.83303817 49.08523967 7.83514404 51.34672546 C7.84085419 52.878955 7.84085419 52.878955 7.84667969 54.44213867 C7.84714294 55.34115402 7.8476062 56.24016937 7.8480835 57.16642761 C7.880119 59.62388058 7.880119 59.62388058 8.97265625 62.4609375 C2.37265625 62.4609375 -4.22734375 62.4609375 -11.02734375 62.4609375 C-11.08792969 60.37910156 -11.14851563 58.29726563 -11.2109375 56.15234375 C-11.27349782 54.14346248 -11.3360915 52.13458209 -11.3996582 50.12573242 C-11.44305809 48.72604551 -11.48472939 47.32630391 -11.5246582 45.92651367 C-11.5822382 43.91832255 -11.64648375 41.91032601 -11.7109375 39.90234375 C-11.76592407 38.08778687 -11.76592407 38.08778687 -11.82202148 36.23657227 C-11.71672641 33.55388294 -11.71672641 33.55388294 -13.02734375 32.4609375 C-15.99734375 32.4609375 -18.96734375 32.4609375 -22.02734375 32.4609375 C-22.35734375 42.3609375 -22.68734375 52.2609375 -23.02734375 62.4609375 C-29.95734375 62.4609375 -36.88734375 62.4609375 -44.02734375 62.4609375 C-44.02734375 61.8009375 -44.02734375 61.1409375 -44.02734375 60.4609375 C-43.36734375 60.4609375 -42.70734375 60.4609375 -42.02734375 60.4609375 C-42.0362262 59.82280121 -42.04510864 59.18466492 -42.05426025 58.52719116 C-42.14286121 51.87612885 -42.20313119 45.22523463 -42.24707031 38.57373047 C-42.26716616 36.09254139 -42.29444759 33.61139955 -42.32910156 31.13037109 C-42.37770669 27.56075368 -42.40033347 23.99176334 -42.41796875 20.421875 C-42.44893646 18.76217178 -42.44893646 18.76217178 -42.48052979 17.06893921 C-42.48233017 10.86776864 -42.20518961 7.16710638 -38.02734375 2.4609375 C-28.84423639 -5.76559618 -10.66807705 -4.66603744 0 0 Z " fill="#1F2C53" transform="translate(193.02734375,220.5390625)"/>
<path d="M0 0 C1.35117416 0.0001133 1.35117416 0.0001133 2.72964478 0.00022888 C3.70364227 0.00539017 4.67763977 0.01055145 5.68115234 0.01586914 C6.67714447 0.01728409 7.6731366 0.01869904 8.6993103 0.02015686 C11.88860037 0.02576603 15.0778209 0.03832009 18.26708984 0.05102539 C20.425943 0.05603921 22.58479725 0.06060232 24.74365234 0.06469727 C30.04315534 0.07573844 35.34261763 0.09248552 40.64208984 0.11352539 C40.64208984 4.97153601 39.63602324 5.47494965 36.64208984 9.11352539 C35.17539754 11.63850277 33.90819342 14.25450687 32.63037109 16.87915039 C32.25784714 17.63081482 31.88532318 18.38247925 31.50151062 19.15692139 C30.31344374 21.5563284 29.13355177 23.95963339 27.95458984 26.36352539 C26.41230741 29.49536577 24.86632195 32.62535549 23.31787109 35.75415039 C22.93768829 36.52319702 22.55750549 37.29224365 22.165802 38.08459473 C18.14688805 46.17686253 13.91311375 54.15212845 9.64208984 62.11352539 C10.95061531 61.83320573 12.25646923 61.54039172 13.56103516 61.2421875 C14.28848938 61.0804454 15.0159436 60.91870331 15.76544189 60.75205994 C17.84987981 60.26244229 17.84987981 60.26244229 18.93896484 58.05493164 C19.08849609 57.26989258 19.23802734 56.48485352 19.39208984 55.67602539 C20.53249855 51.24268656 20.53249855 51.24268656 22.39208984 49.05102539 C25.6973835 47.6738197 28.09721053 47.67818933 31.64208984 48.11352539 C34.39538005 49.90914944 36.16836445 51.16607461 37.64208984 54.11352539 C38.07232782 57.98566721 37.9587807 59.63848911 35.76708984 62.92602539 C33.63510964 65.12071089 32.72345155 66.04680069 29.69320679 66.23377991 C28.89822784 66.2315593 28.1032489 66.22933868 27.28417969 66.22705078 C25.93300552 66.22693748 25.93300552 66.22693748 24.55453491 66.2268219 C23.58053741 66.22166061 22.60653992 66.21649933 21.60302734 66.21118164 C20.60703522 66.20976669 19.61104309 66.20835175 18.58486938 66.20689392 C15.39557932 66.20128475 12.20635879 66.18873069 9.01708984 66.17602539 C6.85823669 66.17101157 4.69938244 66.16644846 2.54052734 66.16235352 C-2.75897565 66.15131234 -8.05843794 66.13456527 -13.35791016 66.11352539 C-12.27700612 62.96907728 -10.88631457 60.28305961 -9.09155273 57.50610352 C-5.87622502 52.47445184 -3.26579243 47.17932432 -0.61962891 41.83227539 C-0.09399857 40.77818481 0.43163177 39.72409424 0.97319031 38.63806152 C2.63744977 35.29842203 4.29609928 31.95603288 5.95458984 28.61352539 C7.0876828 26.33729921 8.2211426 24.0612556 9.35498047 21.78540039 C12.12159751 16.23021374 14.88362428 10.67276382 17.64208984 5.11352539 C13.18708984 5.60852539 13.18708984 5.60852539 8.64208984 6.11352539 C8.39974609 6.8005957 8.15740234 7.48766602 7.90771484 8.19555664 C7.40498047 9.54713867 7.40498047 9.54713867 6.89208984 10.92602539 C6.56724609 11.8193457 6.24240234 12.71266602 5.90771484 13.63305664 C4.49445092 16.40287946 3.30259218 17.5467286 0.64208984 19.11352539 C-3.28512084 19.69842911 -4.83899558 19.45946844 -8.17041016 17.23852539 C-10.95440215 14.53407603 -11.29255171 13.69085835 -11.73291016 9.80102539 C-11.35791016 6.11352539 -11.35791016 6.11352539 -8.98291016 3.23852539 C-5.64691249 0.53795585 -4.18274283 -0.01168364 0 0 Z " fill="#212E55" transform="translate(310.35791015625,216.886474609375)"/>
<path d="M0 0 C1.35117416 0.0001133 1.35117416 0.0001133 2.72964478 0.00022888 C3.70364227 0.00539017 4.67763977 0.01055145 5.68115234 0.01586914 C6.67714447 0.01728409 7.6731366 0.01869904 8.6993103 0.02015686 C11.88860037 0.02576603 15.0778209 0.03832009 18.26708984 0.05102539 C20.425943 0.05603921 22.58479725 0.06060232 24.74365234 0.06469727 C30.04315534 0.07573844 35.34261763 0.09248552 40.64208984 0.11352539 C40.64208984 4.37215108 40.37691342 4.92670082 38.00683594 8.15234375 C34.38606854 13.35226637 31.60072988 18.81568431 28.80615234 24.49243164 C28.28193695 25.54510727 27.75772156 26.5977829 27.21762085 27.68235779 C25.5617357 31.01078064 23.91429157 34.3432981 22.26708984 37.67602539 C21.13874118 39.9477868 20.00984027 42.219274 18.88037109 44.49047852 C16.12788567 50.0283405 13.38229875 55.56957944 10.64208984 61.11352539 C13.55861158 61.28033648 13.55861158 61.28033648 16.64208984 61.11352539 C18.86016761 58.89544762 18.9750515 58.14617429 19.51708984 55.17602539 C20.15599956 52.48870283 20.5177036 51.26094613 22.32958984 49.11352539 C25.6641197 47.67156653 28.04551077 47.67184024 31.64208984 48.11352539 C34.51708984 49.67602539 34.51708984 49.67602539 36.64208984 52.11352539 C37.79097502 56.06281818 38.0733838 58.14311398 36.39208984 61.92602539 C34.40564249 64.40908458 32.82144788 65.9764411 29.57295227 66.35403442 C28.78019394 66.3495932 27.98743561 66.34515198 27.1706543 66.34057617 C26.26994705 66.34042511 25.36923981 66.34027405 24.4412384 66.34011841 C23.47240219 66.32979584 22.50356598 66.31947327 21.50537109 66.30883789 C20.01350533 66.30459305 20.01350533 66.30459305 18.49150085 66.30026245 C15.31240854 66.28906028 12.13359713 66.26395553 8.95458984 66.23852539 C6.80029704 66.22849564 4.64599981 66.21936978 2.49169922 66.21118164 C-2.79159988 66.18912085 -8.07473495 66.15564295 -13.35791016 66.11352539 C-11.90036838 63.18941978 -10.40947722 60.2868071 -8.88916016 57.39477539 C-2.62312475 45.44809106 3.52920661 33.45465649 9.52246094 21.36889648 C11.26280191 17.86316819 13.0150949 14.36343981 14.76708984 10.86352539 C15.32654297 9.74461914 15.88599609 8.62571289 16.46240234 7.47290039 C16.85169922 6.69430664 17.24099609 5.91571289 17.64208984 5.11352539 C13.18708984 5.60852539 13.18708984 5.60852539 8.64208984 6.11352539 C8.25021484 7.51602539 7.85833984 8.91852539 7.45458984 10.36352539 C6.02496917 14.60562413 4.72254878 16.93095433 0.64208984 19.11352539 C-3.07046816 19.73228506 -4.81977118 19.3885742 -8.17041016 17.67602539 C-10.85052649 14.53646054 -11.37428338 12.36670362 -11.63525391 8.30493164 C-11.35791016 6.11352539 -11.35791016 6.11352539 -9.04541016 3.11352539 C-5.65378624 0.5895262 -4.13463322 -0.01154925 0 0 Z " fill="#212E54" transform="translate(367.35791015625,216.886474609375)"/>
<path d="M0 0 C1.01252838 0.00707474 2.02505676 0.01414948 3.06826782 0.0214386 C6.28846467 0.04933046 9.50689506 0.11206117 12.7265625 0.17578125 C14.9153394 0.20087076 17.10414366 0.22368279 19.29296875 0.24414062 C24.64643162 0.29913965 29.99887084 0.3827135 35.3515625 0.48828125 C34.70948143 3.81446107 33.45943905 6.16871643 31.65380859 9.02099609 C28.27855284 14.51909056 25.37541475 20.18550675 22.515625 25.96484375 C21.99140961 27.01610443 21.46719421 28.06736511 20.92709351 29.15048218 C19.27311074 32.46953666 17.62474839 35.79134498 15.9765625 39.11328125 C14.84802848 41.38039366 13.71912568 43.64732254 12.58984375 45.9140625 C9.83948582 51.43668885 7.09372203 56.96157995 4.3515625 62.48828125 C6.9915625 61.82828125 9.6315625 61.16828125 12.3515625 60.48828125 C12.5784375 59.25078125 12.8053125 58.01328125 13.0390625 56.73828125 C13.81791261 53.73490721 14.41227782 52.41284706 16.4140625 49.92578125 C20.59308887 47.88072579 23.93691258 48.18685266 28.3515625 49.48828125 C30.4140625 51.05078125 30.4140625 51.05078125 31.3515625 53.48828125 C32.21642887 60.29910394 32.21642887 60.29910394 29.46020508 64.08886719 C25.02009013 67.51598175 21.47619381 67.1234743 16.01953125 66.9765625 C14.53191032 66.96595039 14.53191032 66.96595039 13.01423645 66.9551239 C9.85506908 66.92719558 6.69769168 66.86445845 3.5390625 66.80078125 C1.39390585 66.77569643 -0.75127865 66.75288359 -2.89648438 66.73242188 C-8.14774334 66.67737452 -13.39796253 66.59376435 -18.6484375 66.48828125 C-17.89029428 62.82483377 -16.26448447 60.29660256 -14.24462891 57.16064453 C-10.54757659 50.97099408 -7.51991928 44.38955098 -4.3359375 37.92578125 C-2.88441477 34.98553385 -1.43011644 32.04668385 0.02734375 29.109375 C0.38232941 28.39381439 0.73731506 27.67825378 1.10305786 26.94100952 C4.70740282 19.7121653 8.50606006 12.59111988 12.3515625 5.48828125 C7.8965625 5.98328125 7.8965625 5.98328125 3.3515625 6.48828125 C3.12082031 7.17535156 2.89007813 7.86242187 2.65234375 8.5703125 C-0.00523037 15.91278014 -0.00523037 15.91278014 -3.0234375 18.61328125 C-6.23927205 19.6852261 -8.28304126 20.04918062 -11.6484375 19.48828125 C-14.66544771 17.45507872 -16.30148964 15.93085394 -17.16796875 12.328125 C-17.48016265 7.97919143 -17.48016265 7.97919143 -16.6484375 5.48828125 C-11.53122075 -0.12298266 -7.35231528 -0.19455691 0 0 Z " fill="#212E54" transform="translate(224.6484375,216.51171875)"/>
<path d="M0 0 C2.39774745 -0.13572155 4.78775245 -0.23436868 7.1875 -0.3125 C8.19780273 -0.3753418 8.19780273 -0.3753418 9.22851562 -0.43945312 C13.26303321 -0.53785599 14.79311935 -0.17373555 17.92578125 2.45703125 C18.61027344 3.29621094 19.29476562 4.13539063 20 5 C20.33 5.33 20.66 5.66 21 6 C21.11751573 7.59001333 21.16728082 9.18510092 21.18945312 10.77929688 C21.20617065 11.797052 21.22288818 12.81480713 21.2401123 13.86340332 C21.25368774 14.97066772 21.26726318 16.07793213 21.28125 17.21875 C21.30886414 18.9110675 21.30886414 18.9110675 21.33703613 20.63757324 C21.41603321 25.48826233 21.48356271 30.3390971 21.55224609 35.18994141 C21.6038382 38.72045051 21.66114298 42.25083477 21.71875 45.78125 C21.73232544 46.8885144 21.74590088 47.99577881 21.7598877 49.13659668 C21.77660522 50.15435181 21.79332275 51.17210693 21.81054688 52.22070312 C21.82307495 53.12147583 21.83560303 54.02224854 21.84851074 54.95031738 C21.77515678 56.99284486 21.77515678 56.99284486 23 58 C24.87321948 58.16053815 24.87321948 58.16053815 27 58.125 C27.721875 58.12757813 28.44375 58.13015625 29.1875 58.1328125 C31.02089415 58.19695276 31.02089415 58.19695276 32 57 C32.10563195 55.25120432 32.18446365 53.50075682 32.25 51.75 C32.59141138 47.83141269 32.8780844 46.18841501 35.0625 42.8125 C38.3362376 40.79253425 40.27209538 40.25064323 44.0625 40.5234375 C47.61497432 41.39723159 49.01078114 43.0161717 51 46 C51.6782256 50.74757919 51.49986469 52.91695985 49.5 57.25 C45.57843772 61.56371851 40.70736683 63.89318103 35 65 C32.38128533 65.08315367 29.7897706 65.11642306 27.171875 65.09765625 C26.17534912 65.09614563 26.17534912 65.09614563 25.15869141 65.09460449 C22.68910992 65.08939262 20.21955313 65.07543139 17.75 65.0625 C12.2225 65.041875 6.695 65.02125 1 65 C1.33 44.21 1.66 23.42 2 2 C1.34 2 0.68 2 0 2 C0 1.34 0 0.68 0 0 Z " fill="#212E55" transform="translate(93,218)"/>
<path d="M0 0 C6.93 0 13.86 0 21 0 C21 2.93363539 20.99255645 5.86715828 20.98413086 8.80078125 C20.96809244 14.72053271 20.95654107 20.64027706 20.94818783 26.56004333 C20.9429583 30.14127827 20.93585296 33.72248958 20.92456055 37.30371094 C20.91370353 40.76956413 20.90771781 44.23539454 20.90512276 47.70126343 C20.90237679 49.66388708 20.89457094 51.62650153 20.88670349 53.58911133 C20.88662796 54.78044678 20.88655243 55.97178223 20.88647461 57.19921875 C20.88314369 58.77449341 20.88314369 58.77449341 20.87974548 60.3815918 C20.88603225 63.11204824 20.88603225 63.11204824 22 66 C14.74 66 7.48 66 0 66 C0 44.22 0 22.44 0 0 Z " fill="#243057" transform="translate(268,217)"/>
<path d="M0 0 C0.99 0.33 1.98 0.66 3 1 C4.18650736 3.55624749 5.20831297 6.05297331 6.1875 8.6875 C22.67661486 50.63858938 58.05721278 82.07221362 98.65087891 99.98095703 C115.52317095 107.30011594 134.81622505 112.09170856 153.2578125 112.203125 C154.42322571 112.21371445 154.42322571 112.21371445 155.61218262 112.22451782 C205.64664617 112.57556467 248.60932827 99.16480985 286 65 C286.81984375 64.25234375 287.6396875 63.5046875 288.484375 62.734375 C306.80236887 45.19587023 318.88798452 22.94649667 329 0 C329.66 0 330.32 0 331 0 C329.10254268 7.2735864 326.4211124 13.69575567 322.875 20.3125 C322.38926514 21.22749268 321.90353027 22.14248535 321.40307617 23.08520508 C317.42472196 30.45703364 313.06801501 37.31814781 308 44 C307.37996094 44.83015625 306.75992187 45.6603125 306.12109375 46.515625 C298.18569241 56.78691693 289.17776943 66.90616143 279 75 C278.03707031 75.77730469 277.07414062 76.55460937 276.08203125 77.35546875 C259.49859178 90.55056816 241.04437119 100.24942996 221 107 C219.99332275 107.34224609 219.99332275 107.34224609 218.96630859 107.69140625 C214.02776424 109.33954978 209.05579676 110.75782841 204 112 C203.32243652 112.16661133 202.64487305 112.33322266 201.94677734 112.50488281 C189.40271017 115.37702524 176.61215879 115.31201837 163.8125 115.375 C162.53715897 115.38691879 162.53715897 115.38691879 161.23605347 115.39907837 C145.91936295 115.50886948 131.49598901 113.66935476 116.75 109.375 C115.88431396 109.12411621 115.01862793 108.87323242 114.12670898 108.61474609 C95.04647529 102.85370212 77.75110577 93.97001078 61.5625 82.4375 C60.81653564 81.90737305 60.07057129 81.37724609 59.30200195 80.83105469 C55.00124348 77.69426961 51.19388503 74.35980566 47.49438477 70.53344727 C45.81810829 68.81335373 44.0424747 67.27417785 42.1875 65.75 C27.95575363 53.34493372 17.10699649 37.6152354 8.375 21 C7.87822754 20.05737305 7.38145508 19.11474609 6.86962891 18.14355469 C3.86735746 12.24307667 1.66278781 6.40790119 0 0 Z " fill="#FFE16C" transform="translate(82,311)"/>
<path d="M0 0 C0.89974548 -0.00040283 1.79949097 -0.00080566 2.72650146 -0.0012207 C17.33521701 0.03634299 30.95643314 1.13694376 45 5.4375 C46.43134277 5.86361572 46.43134277 5.86361572 47.89160156 6.29833984 C66.47578553 11.95452913 84.30200937 19.89616041 100 31.4375 C101.52753906 32.53964844 101.52753906 32.53964844 103.0859375 33.6640625 C109.34672816 38.27266034 115.17769391 43.27522999 120.875 48.5625 C121.78439331 49.40482178 121.78439331 49.40482178 122.7121582 50.26416016 C141.11022142 67.64024894 154.8845063 89.93066417 164 113.4375 C164 114.0975 164 114.7575 164 115.4375 C163.34 115.4375 162.68 115.4375 162 115.4375 C161.27296875 113.73207031 161.27296875 113.73207031 160.53125 111.9921875 C140.86850419 66.43966393 107.125447 32.35786935 60.953125 13.78125 C44.71128466 7.54310209 26.68871013 3.36912002 9.26953125 3.19921875 C8.03274879 3.1847319 8.03274879 3.1847319 6.77098083 3.16995239 C4.11810788 3.14522345 1.46547561 3.13257394 -1.1875 3.125 C-2.08883667 3.12204926 -2.99017334 3.11909851 -3.91882324 3.11605835 C-17.07639872 3.106227 -29.27825539 3.85168183 -42 7.4375 C-43.57201172 7.7778125 -43.57201172 7.7778125 -45.17578125 8.125 C-67.85856335 13.03602184 -89.89894539 24.01951102 -108 38.4375 C-108.55091309 38.87562012 -109.10182617 39.31374023 -109.66943359 39.76513672 C-135.08624833 60.20605607 -152.22340397 85.6254426 -165 115.4375 C-165.66 115.4375 -166.32 115.4375 -167 115.4375 C-162.30518523 87.87370735 -136.42273188 57.25121039 -115 40.4375 C-114.48872559 40.025 -113.97745117 39.6125 -113.45068359 39.1875 C-93.46240841 23.13892667 -71.38303847 12.01099539 -46.75 5.0625 C-45.91218994 4.82354004 -45.07437988 4.58458008 -44.21118164 4.33837891 C-29.69925115 0.4847156 -14.92370611 -0.00689524 0 0 Z " fill="#FFE26F" transform="translate(249,73.5625)"/>
<path d="M0 0 C2.35838488 0.00315227 4.71549993 -0.02037878 7.07373047 -0.0456543 C23.82251068 -0.11575155 39.35019666 2.78227535 55.12451172 8.31567383 C56.22150391 8.69594727 57.31849609 9.0762207 58.44873047 9.46801758 C71.38547767 14.19398796 83.80361383 20.46517023 95.12451172 28.31567383 C96.51669922 29.27860352 96.51669922 29.27860352 97.93701172 30.26098633 C110.48532571 39.30511689 121.84674936 49.92224501 131.12451172 62.31567383 C131.89794922 63.30051758 132.67138672 64.28536133 133.46826172 65.30004883 C153.12451172 90.96552881 153.12451172 90.96552881 153.12451172 101.31567383 C150.12451172 100.31567383 150.12451172 100.31567383 148.36279297 97.17504883 C147.71328456 95.80883566 147.07186656 94.43875755 146.43701172 93.06567383 C135.75391707 70.9033826 120.8327654 51.19091963 101.12451172 36.31567383 C100.27759766 35.6530957 99.43068359 34.99051758 98.55810547 34.30786133 C82.08722981 21.78901395 62.21194592 12.26571262 42.12451172 7.31567383 C41.07142822 7.0449707 41.07142822 7.0449707 39.99707031 6.76879883 C13.97334571 0.31059511 -14.1054064 1.442963 -39.87548828 8.31567383 C-41.14779297 8.63793945 -42.42009766 8.96020508 -43.73095703 9.29223633 C-64.56338108 15.12836 -84.59991449 26.1530856 -100.87548828 40.31567383 C-101.47377441 40.83564941 -102.07206055 41.355625 -102.68847656 41.89135742 C-121.64740208 58.55496497 -134.77916962 78.84874548 -145.87548828 101.31567383 C-146.53548828 101.31567383 -147.19548828 101.31567383 -147.87548828 101.31567383 C-143.6936804 87.13389058 -135.00000354 73.82370852 -125.87548828 62.31567383 C-125.41948242 61.74010742 -124.96347656 61.16454102 -124.49365234 60.5715332 C-98.2093491 27.84694427 -59.92870765 5.26703381 -17.91567993 0.50094604 C-11.95984972 -0.03990994 -5.97559432 -0.01660913 0 0 Z " fill="#FFE26F" transform="translate(244.87548828125,87.684326171875)"/>
<path d="M0 0 C3 1 3 1 4.7265625 4.0703125 C5.3668229 5.41836275 5.99910259 6.77022131 6.625 8.125 C12.7564772 20.83541358 19.59509081 32.40249397 29 43 C29.44714355 43.51272461 29.89428711 44.02544922 30.35498047 44.55371094 C56.1999237 74.09839372 92.81943953 93.7553317 132 98 C137.03353223 98.29055392 142.07004543 98.28907076 147.11035156 98.26074219 C149.36550983 98.25004502 151.61986605 98.26069109 153.875 98.2734375 C166.89667354 98.28773727 179.57600466 97.14784805 192.125 93.4375 C193.00115967 93.18137939 193.87731934 92.92525879 194.7800293 92.66137695 C237.81779907 79.57092973 271.77858315 51.68890938 293 12 C295.04990074 8.02346649 297.05084353 4.02682875 299 0 C299.66 0 300.32 0 301 0 C296.81819212 14.18178325 288.12451525 27.49196531 279 39 C278.54399414 39.57556641 278.08798828 40.15113281 277.61816406 40.74414062 C258.62237369 64.39435596 234.58984228 81.75428399 206 92 C204.77796875 92.45117188 203.5559375 92.90234375 202.296875 93.3671875 C193.2861868 96.55297475 184.4314988 98.50869463 175 100 C173.94063232 100.17200928 172.88126465 100.34401855 171.78979492 100.52124023 C167.75057446 101.0315096 163.77141515 101.19615314 159.70703125 101.23828125 C158.92740021 101.24812042 158.14776917 101.25795959 157.34451294 101.26809692 C125.13018643 101.59111679 125.13018643 101.59111679 110 97 C109.15276367 96.75330566 108.30552734 96.50661133 107.43261719 96.25244141 C73.77765004 86.30254277 43.25856671 67.28862738 22 39 C21.33871094 38.154375 20.67742187 37.30875 19.99609375 36.4375 C0 10.14126712 0 10.14126712 0 0 Z " fill="#FFE26D" transform="translate(97,311)"/>
<path d="M0 0 C0.70125 0.00515625 1.4025 0.0103125 2.125 0.015625 C2.82625 0.01046875 3.5275 0.0053125 4.25 0 C6.125 0.265625 6.125 0.265625 8.125 2.265625 C8.35205078 4.42041016 8.35205078 4.42041016 8.3203125 7.0546875 C8.31064453 8.46621094 8.31064453 8.46621094 8.30078125 9.90625 C8.28402344 10.89109375 8.26726562 11.8759375 8.25 12.890625 C8.24097656 13.88320312 8.23195312 14.87578125 8.22265625 15.8984375 C8.19904249 18.35426888 8.1631707 20.80997674 8.125 23.265625 C4.165 23.265625 0.205 23.265625 -3.875 23.265625 C-3.92875967 19.8070862 -3.96855681 16.34937592 -4 12.890625 C-4.01675781 11.90578125 -4.03351563 10.9209375 -4.05078125 9.90625 C-4.05722656 8.96523437 -4.06367188 8.02421875 -4.0703125 7.0546875 C-4.08078613 6.18537598 -4.09125977 5.31606445 -4.10205078 4.42041016 C-3.79952597 1.54935213 -2.91264827 0.41262517 0 0 Z " fill="#FBFCFC" transform="translate(173.875,223.734375)"/>
<path d="M0 0 C1.68770515 0.14343968 3.37515486 0.28988569 5.0625 0.4375 C6.00222656 0.51871094 6.94195312 0.59992188 7.91015625 0.68359375 C10.01759883 0.89940013 12.11962365 1.1742393 14.21289062 1.5 C18.05984396 2.00790101 21.80566829 2.20738827 25.68359375 2.31640625 C26.38396255 2.33718735 27.08433136 2.35796844 27.80592346 2.37937927 C30.01636106 2.44412465 32.22690485 2.50340608 34.4375 2.5625 C35.94727607 2.60575681 37.45704188 2.64937323 38.96679688 2.69335938 C42.64442196 2.79972748 46.32216291 2.90120002 50 3 C50 3.33 50 3.66 50 4 C14.11044893 5.81305261 14.11044893 5.81305261 0 2 C0 1.34 0 0.68 0 0 Z " fill="#FFE786" transform="translate(209,421)"/>
<path d="M0 0 C-2.75924185 1.80411967 -3.88972103 2.0127245 -7.25 1.625 C-8.1575 1.41875 -9.065 1.2125 -10 1 C-6.42181037 -1.33958553 -4.07775191 -0.9267618 0 0 Z " fill="#FFE682" transform="translate(207,80)"/>
</svg>
